#!OML:ASF X:\für Bonn\!DataBase\2005_08_12_Daniel\c3d\Daniel.ASF
:FULLY-SPECIFIED
:DEGREES
16
root 5.60369 16.0498 -0.472587 144.661 -100.194 -144.156
lowerback 5.1213 -12.2056 -11.6404
upperback 0.757726 -16.9975 -3.17765
thorax 0.300014 -8.53069 3.30289
lowerneck 7.87118 13.9923 4.58866
upperneck 4.11843 18.85 -5.44047
head 1.02797 9.43224 -2.59449
rclavicle -1.83106e-013 3.18055e-015
rhumerus -44.0575 5.59516 -78.2594
rradius 61.8371
rwrist 16.0801
rhand -28.067 30.5295
rfingers 7.12502
rthumb -1.45058 0.554678
lclavicle -1.83106e-013 3.18055e-015
lhumerus -34.8556 6.9519 62.1887
lradius 94.3544
lwrist 13.8927
lhand -19.9422 -23.0359
lfingers 7.12502
lthumb 6.3956 6.84755
rfemur -42.222 -11.8562 20.6157
rtibia 64.9986
rfoot -25.3652 -2.76692
rtoes -3.59178
lfemur 11.7823 -3.18265 -23.7208
ltibia 46.8393
lfoot -20.1317 4.16536
ltoes -23.9259
17
root 5.52772 16.0979 -0.469297 141.308 -99.3148 -141.515
lowerback 5.04297 -11.8466 -11.2114
upperback 0.933877 -16.4908 -3.48554
thorax 0.251901 -8.28489 2.80066
lowerneck 7.82737 14.0479 4.30423
upperneck 4.12268 18.8965 -5.35602
head 1.00189 9.44868 -2.52327
rclavicle 4.10242e-014 7.79236e-014
rhumerus -43.0808 6.32735 -77.929
rradius 62.6149
rwrist 16.5484
rhand -28.0252 30.4187
rfingers 7.12502
rthumb -1.41026 0.443604
lclavicle 4.10242e-014 7.79236e-014
lhumerus -36.7538 7.56036 61.4559
lradius 91.9359
lwrist 13.9303
lhand -19.4253 -22.6741
lfingers 7.12502
lthumb 6.89463 7.1936
rfemur -40.5319 -11.8346 20.7619
rtibia 63.9795
rfoot -25.2016 -2.12381
rtoes -3.83383
lfemur 10.0566 -1.76641 -23.1832
ltibia 50.4899
lfoot -15.6823 4.23616
ltoes -24.6263
18
root 5.46135 16.142 -0.46336 136.869 -98.3951 -137.867
lowerback 5.10997 -11.4091 -10.7424
upperback 1.12634 -15.8998 -3.8139
thorax 0.127231 -7.99484 2.28861
lowerneck 7.77537 14.0606 3.99957
upperneck 4.10832 18.8843 -5.27666
head 0.966349 9.43574 -2.4522
rclavicle 3.40295e-014 3.18055e-015
rhumerus -42.0287 7.35408 -77.7061
rradius 63.4665
rwrist 16.7314
rhand -27.8738 30.0888
rfingers 7.12502
rthumb -1.26399 0.112822
lclavicle 3.40295e-014 3.18055e-015
lhumerus -38.6693 8.13503 60.799
lradius 89.9033
lwrist 13.8484
lhand -18.8874 -22.3622
lfingers 7.12502
lthumb 7.41386 7.48792
rfemur -38.8096 -11.5718 20.8088
rtibia 62.968
rfoot -24.9594 -1.41125
rtoes -3.89538
lfemur 8.04418 -0.360409 -22.7049
ltibia 54.6461
lfoot -10.3494 4.44752
ltoes -24.1961
19
root 5.40506 16.1865 -0.454943 131.181 -97.4748 -133.073
lowerback 5.38608 -10.9015 -10.1349
upperback 1.32423 -15.2411 -4.19326
thorax -0.147745 -7.66604 1.70021
lowerneck 7.68002 14.0445 3.4891
upperneck 4.06955 18.8147 -5.0323
head 0.889407 9.3906 -2.30075
rclavicle 3.31349e-014 -2.62396e-014
rhumerus -40.9369 8.53297 -77.5516
rradius 64.398
rwrist 16.7876
rhand -27.5999 29.6122
rfingers 7.12502
rthumb -0.999508 -0.365216
lclavicle 3.31349e-014 -2.62396e-014
lhumerus -40.6176 8.66288 60.1767
lradius 88.3532
lwrist 13.7292
lhand -18.2037 -22.0863
lfingers 7.12502
lthumb 8.07372 7.73945
rfemur -36.9861 -11.1055 20.7823
rtibia 61.9462
rfoot -24.689 -0.630453
rtoes -3.58243
lfemur 5.75005 1.02641 -22.2407
ltibia 59.2805
lfoot -4.30354 4.84283
ltoes -22.2923
20
root 5.35438 16.2302 -0.443944 123.61 -96.6194 -126.48
lowerback 5.80508 -10.3287 -9.42872
upperback 1.53762 -14.5104 -4.626
thorax -0.50882 -7.30092 1.02309
lowerneck 7.5126 14.0032 2.80448
upperneck 4.05645 18.6975 -4.63349
head 0.79847 9.31785 -2.07301
rclavicle -1.17093e-013 -9.54166e-015
rhumerus -39.8121 9.76415 -77.4286
rradius 65.3841
rwrist 16.9054
rhand -27.3169 29.0804
rfingers 7.12502
rthumb -0.726203 -0.898077
lclavicle -1.17093e-013 -9.54166e-015
lhumerus -42.577 9.01193 59.5984
lradius 87.2332
lwrist 13.7197
lhand -17.5242 -21.9294
lfingers 7.12502
lthumb 8.72948 7.8701
rfemur -35.1045 -10.548 20.6986
rtibia 60.9349
rfoot -24.3957 0.159451
rtoes -3.09902
lfemur 3.16542 2.45454 -21.7695
ltibia 64.3118
lfoot 1.88783 5.25901
ltoes -19.7203
21
root 5.30349 16.2668 -0.43061 113.871 -95.895 -117.932
lowerback 6.44552 -9.70185 -8.70795
upperback 1.82246 -13.7296 -5.09982
thorax -0.90775 -6.9144 0.305838
lowerneck 7.32949 13.9214 2.03709
upperneck 4.02702 18.5223 -4.15482
head 0.689128 9.21545 -1.81209
rclavicle 6.44373e-014 6.36111e-015
rhumerus -38.6955 10.9346 -77.3197
rradius 66.4406
rwrist 17.2532
rhand -27.0666 28.6376
rfingers 7.12502
rthumb -0.484378 -1.34159
lclavicle 6.44373e-014 6.36111e-015
lhumerus -44.5149 9.26329 59.0712
lradius 86.5373
lwrist 13.8456
lhand -16.8107 -21.7731
lfingers 7.12502
lthumb 9.41801 7.99652
rfemur -33.0092 -10.0326 20.5947
rtibia 59.9451
rfoot -24.1312 0.891991
rtoes -2.69996
lfemur 0.493594 3.7414 -21.3742
ltibia 69.61
lfoot 7.86528 5.63271
ltoes -17.8502
22
root 5.25153 16.2936 -0.414495 101.815 -95.3321 -107.319
lowerback 7.34116 -8.99926 -7.96343
upperback 2.19681 -12.8706 -5.63241
thorax -1.34668 -6.49365 -0.481818
lowerneck 7.20761 13.7613 1.43975
upperneck 3.97224 18.2589 -3.69861
head 0.580676 9.07361 -1.58937
rclavicle 8.32038e-014 4.45278e-014
rhumerus -37.6673 11.8559 -77.2294
rradius 67.541
rwrist 17.9314
rhand -26.9208 28.4079
rfingers 7.12502
rthumb -0.343619 -1.57158
lclavicle 8.32038e-014 4.45278e-014
lhumerus -46.3307 9.29698 58.6098
lradius 86.1912
lwrist 14.1967
lhand -16.1227 -21.6079
lfingers 7.12502
lthumb 10.0818 8.13058
rfemur -30.6513 -9.52267 20.4992
rtibia 58.988
rfoot -23.9145 1.51879
rtoes -2.45879
lfemur -2.10306 4.83839 -21.0164
ltibia 74.9908
lfoot 13.6564 6.08765
ltoes -16.8041
23
root 5.19685 16.3168 -0.397025 87.6984 -95.0255 -94.8685
lowerback 8.44657 -8.20128 -7.29243
upperback 2.65494 -11.9064 -6.19615
thorax -1.77279 -6.02687 -1.28953
lowerneck 7.22249 13.4918 1.0958
upperneck 3.89279 17.8698 -3.30287
head 0.471499 8.8747 -1.43099
rclavicle -1.25818e-013 -6.67916e-014
rhumerus -36.7493 12.6211 -77.1603
rradius 68.6317
rwrist 18.82
rhand -27.099 28.3647
rfingers 7.12502
rthumb -0.515675 -1.6144
lclavicle -1.25818e-013 -6.67916e-014
lhumerus -47.9379 9.13389 58.2886
lradius 86.0927
lwrist 14.6531
lhand -15.6053 -21.3562
lfingers 7.12502
lthumb 10.5809 8.35741
rfemur -28.0271 -8.93259 20.3593
rtibia 58.0245
rfoot -23.7656 2.05559
rtoes -2.31593
lfemur -4.62223 5.96198 -20.5262
ltibia 80.3544
lfoot 19.0581 6.04081
ltoes -16.2089
